# Blender v2.77 (sub 0) OBJ File: 'heroes_keep_02.blend'
# www.blender.org
mtllib heroes_keep_02_transparency.mtl
o Plane.1467_Plane.1957
v -0.627063 -0.000303 -0.589606
v -0.627063 -0.000303 -1.238103
v -1.275560 -0.000303 -0.589606
v -1.275560 -0.000303 -1.238103
v -0.951312 0.080044 -0.589606
v -0.951312 0.080044 -1.238103
v -0.627063 0.080044 -0.913855
v -1.275560 0.080044 -0.913855
v -0.951312 0.255497 -0.913855
vt 0.0314 0.9686
vt 0.0628 0.9686
vt 0.0628 1.0000
vt 0.0314 1.0000
vt 0.0314 0.9372
vt 0.0628 0.9372
vt 0.0000 0.9372
vt 0.0000 0.9686
vt 0.0000 1.0000
vn -0.3445 0.8733 -0.3445
vn 0.3445 0.8733 -0.3445
vn 0.3445 0.8733 0.3445
vn -0.3445 0.8733 0.3445
usemtl Material.8825
s off
f 9/1/1 6/2/1 4/3/1 8/4/1
f 7/5/2 2/6/2 6/2/2 9/1/2
f 1/7/3 7/5/3 9/1/3 5/8/3
f 5/8/4 9/1/4 8/4/4 3/9/4
o Plane.1524_Plane.2021
v 1.331766 -0.017639 1.248534
v 1.331766 -0.017639 0.487264
v 0.604502 -0.017639 1.248534
v 0.604502 -0.017639 0.487264
v 0.968134 0.026240 1.248534
v 0.968134 0.026240 0.487264
v 1.331766 0.026240 0.867899
v 0.604502 0.026240 0.867899
v 0.968134 0.198988 0.867899
vt 0.0942 0.9686
vt 0.1255 0.9686
vt 0.1255 1.0000
vt 0.0942 1.0000
vt 0.0942 0.9373
vt 0.1255 0.9373
vt 0.0628 0.9373
vt 0.0628 0.9686
vt 0.0628 1.0000
vn -0.2754 0.9246 -0.2631
vn 0.2754 0.9246 -0.2631
vn 0.2754 0.9246 0.2631
vn -0.2754 0.9246 0.2631
usemtl Material.10664
s off
f 18/10/5 15/11/5 13/12/5 17/13/5
f 16/14/6 11/15/6 15/11/6 18/10/6
f 10/16/7 16/14/7 18/10/7 14/17/7
f 14/17/8 18/10/8 17/13/8 12/18/8
o Cone.006_Cone.048
v 0.748921 0.772173 -0.736631
v 0.626512 0.772173 -0.843604
v 0.657950 0.772173 -1.003100
v 0.811796 0.772173 -1.055622
v 0.780359 1.186314 -0.896126
v 0.934205 0.772173 -0.948648
v 0.902767 0.772173 -0.789153
v 0.713739 0.606019 -1.096685
v 0.920737 0.606019 -1.054100
v 0.987357 0.606019 -0.853542
v 0.846979 0.606019 -0.695568
v 0.780359 0.910654 -0.896126
v 0.639980 0.606019 -0.738152
v 0.573360 0.606019 -0.938711
v 0.998469 0.399345 -0.696214
v 0.716284 0.399345 -0.607280
v 0.498174 0.399345 -0.807193
v 0.562248 0.399345 -1.096039
v 0.780359 0.825834 -0.896126
v 0.844433 0.399345 -1.184972
v 1.062544 0.399345 -0.985060
v 0.649783 0.124395 -1.289221
v 1.055501 0.124395 -1.205755
v 1.186076 0.124395 -0.812660
v 0.910934 0.124395 -0.503031
v 0.780359 0.721479 -0.896126
v 0.505216 0.124395 -0.586497
v 0.374641 0.124395 -0.979592
vt 0.0241 0.9188
vt 0.0137 0.9249
vt 0.0137 0.9128
vt 0.0032 0.9188
vt 0.0032 0.9309
vt 0.0241 0.9309
vt 0.0137 0.9369
vt 0.0557 0.9128
vt 0.0425 0.9205
vt 0.0425 0.9052
vt 0.0293 0.9128
vt 0.0293 0.9281
vt 0.0557 0.9281
vt 0.0425 0.9357
vt 0.0484 0.9046
vt 0.0482 0.8899
vt 0.0610 0.8971
vt 0.0608 0.8824
vt 0.0480 0.8752
vt 0.0355 0.8974
vt 0.0354 0.8827
vt 0.0016 0.8862
vt 0.0178 0.8955
vt 0.0016 0.9048
vt 0.0178 0.9141
vt 0.0339 0.9048
vt 0.0178 0.8769
vt 0.0339 0.8862
vn 0.9289 0.3219 0.1831
vn -0.6230 0.3219 0.7129
vn 0.6230 0.3219 -0.7129
vn -0.3059 0.3219 -0.8960
vn 0.3059 0.3219 0.8960
vn -0.9289 0.3219 -0.1831
vn -0.8135 0.5150 0.2702
vn 0.1727 0.5150 -0.8396
vn -0.1727 0.5150 0.8396
vn 0.6408 0.5150 0.5694
vn -0.6408 0.5150 -0.5694
vn 0.8135 0.5150 -0.2702
vn 0.5792 0.5150 -0.6319
vn 0.2577 0.5150 0.8176
vn -0.2577 0.5150 -0.8176
vn -0.8369 0.5150 -0.1856
vn 0.8369 0.5150 0.1856
vn -0.5792 0.5150 0.6319
usemtl Material.10691
s off
f 24/19/9 23/20/9 25/21/9
f 19/22/10 23/20/10 20/23/10
f 22/24/11 23/20/11 24/19/11
f 21/25/12 23/20/12 22/24/12
f 25/21/13 23/20/13 19/22/13
f 20/23/14 23/20/14 21/25/14
f 31/26/15 30/27/15 32/28/15
f 26/29/16 30/27/16 27/30/16
f 29/31/17 30/27/17 31/26/17
f 28/32/18 30/27/18 29/31/18
f 32/28/19 30/27/19 26/29/19
f 27/30/20 30/27/20 28/32/20
f 38/33/21 37/34/21 39/35/21
f 33/36/22 37/34/22 34/37/22
f 36/38/23 37/34/23 38/33/23
f 35/39/24 37/34/24 36/38/24
f 39/35/25 37/34/25 33/36/25
f 34/37/26 37/34/26 35/39/26
f 45/40/15 44/41/15 46/42/15
f 40/43/16 44/41/16 41/44/16
f 43/45/17 44/41/17 45/40/17
f 42/46/18 44/41/18 43/45/18
f 46/42/19 44/41/19 40/43/19
f 41/44/20 44/41/20 42/46/20
o Cone.023_Cone.064
v -0.945580 0.772173 1.089060
v -1.074725 0.772173 0.990324
v -1.053791 0.772173 0.829114
v -0.903711 0.772173 0.766638
v -0.924645 1.186314 0.927849
v -0.774565 0.772173 0.865373
v -0.795500 0.772173 1.026584
v -1.004245 0.606019 0.732079
v -0.794904 0.606019 0.761028
v -0.715304 0.606019 0.956798
v -0.845045 0.606019 1.123618
v -0.924645 0.910654 0.927849
v -1.054387 0.606019 1.094669
v -1.133987 0.606019 0.898900
v -0.693921 0.399345 1.113062
v -0.969682 0.399345 1.220268
v -1.200406 0.399345 1.035055
v -1.155369 0.399345 0.742636
v -0.924645 0.825834 0.927849
v -0.879608 0.399345 0.635429
v -0.648884 0.399345 0.820642
v -1.080661 0.124395 0.544140
v -0.670352 0.124395 0.600880
v -0.514336 0.124395 0.984589
v -0.768629 0.124395 1.311558
v -0.924645 0.721479 0.927849
v -1.178939 0.124395 1.254817
v -1.334955 0.124395 0.871108
vt 0.0867 0.9190
vt 0.0763 0.9250
vt 0.0763 0.9130
vt 0.0659 0.9190
vt 0.0659 0.9310
vt 0.0867 0.9310
vt 0.0763 0.9370
vt 0.1182 0.9127
vt 0.1051 0.9203
vt 0.1051 0.9052
vt 0.0919 0.9127
vt 0.0919 0.9279
vt 0.1182 0.9279
vt 0.1051 0.9355
vt 0.1108 0.9047
vt 0.1106 0.8900
vt 0.1234 0.8972
vt 0.1233 0.8824
vt 0.1104 0.8752
vt 0.0979 0.8975
vt 0.0977 0.8827
vt 0.0643 0.8861
vt 0.0804 0.8955
vt 0.0643 0.9048
vt 0.0804 0.9141
vt 0.0965 0.9048
vt 0.0804 0.8768
vt 0.0965 0.8861
vn 0.9389 0.3219 0.1219
vn -0.5750 0.3219 0.7522
vn 0.5750 0.3219 -0.7522
vn -0.3639 0.3219 -0.8741
vn 0.3639 0.3219 0.8741
vn -0.9389 0.3219 -0.1219
vn -0.7941 0.5150 0.3229
vn 0.1174 0.5150 -0.8491
vn -0.1174 0.5150 0.8491
vn 0.6766 0.5150 0.5262
vn -0.6766 0.5150 -0.5262
vn 0.7941 0.5150 -0.3229
vn 0.5366 0.5150 -0.6685
vn 0.3106 0.5150 0.7989
vn -0.3106 0.5150 -0.7989
vn -0.8472 0.5150 -0.1305
vn 0.8472 0.5150 0.1305
vn -0.5366 0.5150 0.6685
usemtl Material.10640
s off
f 52/47/27 51/48/27 53/49/27
f 47/50/28 51/48/28 48/51/28
f 50/52/29 51/48/29 52/47/29
f 49/53/30 51/48/30 50/52/30
f 53/49/31 51/48/31 47/50/31
f 48/51/32 51/48/32 49/53/32
f 59/54/33 58/55/33 60/56/33
f 54/57/34 58/55/34 55/58/34
f 57/59/35 58/55/35 59/54/35
f 56/60/36 58/55/36 57/59/36
f 60/56/37 58/55/37 54/57/37
f 55/58/38 58/55/38 56/60/38
f 66/61/39 65/62/39 67/63/39
f 61/64/40 65/62/40 62/65/40
f 64/66/41 65/62/41 66/61/41
f 63/67/42 65/62/42 64/66/42
f 67/63/43 65/62/43 61/64/43
f 62/65/44 65/62/44 63/67/44
f 73/68/33 72/69/33 74/70/33
f 68/71/34 72/69/34 69/72/34
f 71/73/35 72/69/35 73/68/35
f 70/74/36 72/69/36 71/73/36
f 74/70/37 72/69/37 68/71/37
f 69/72/38 72/69/38 70/74/38
o Plane.000
v -2.184200 0.001000 2.184200
v 2.184200 0.001000 2.184200
v -2.184200 0.001000 -2.184200
v 2.184200 0.001000 -2.184200
vt 0.1254 0.7504
vt 0.2495 0.7504
vt 0.2495 0.8746
vt 0.1254 0.8746
vn 0.0000 1.0000 0.0000
usemtl Material
s off
f 75/75/45 76/76/45 78/77/45 77/78/45
