# Blender v2.77 (sub 0) OBJ File: 'tower_01.blend'
# www.blender.org
mtllib tower_01_transparency.mtl
o Cone.009_Cone.051
v 0.684846 0.772173 -0.768073
v 0.783581 0.772173 -0.897219
v 0.944791 0.772173 -0.876284
v 1.007267 0.772173 -0.726205
v 0.846056 1.186314 -0.747139
v 0.908532 0.772173 -0.597059
v 0.747321 0.772173 -0.617993
v 1.041826 0.606019 -0.826739
v 1.012877 0.606019 -0.617398
v 0.817108 0.606019 -0.537797
v 0.650287 0.606019 -0.667539
v 0.846056 0.910654 -0.747139
v 0.679236 0.606019 -0.876880
v 0.875005 0.606019 -0.956481
v 0.660844 0.399345 -0.516415
v 0.553637 0.399345 -0.792176
v 0.738850 0.399345 -1.022900
v 1.031269 0.399345 -0.977863
v 0.846056 0.825834 -0.747139
v 1.138476 0.399345 -0.702102
v 0.953263 0.399345 -0.471378
v 1.229765 0.124395 -0.903156
v 1.173025 0.124395 -0.492846
v 0.789317 0.124395 -0.336829
v 0.462348 0.124395 -0.591122
v 0.846056 0.721479 -0.747139
v 0.519088 0.124395 -1.001432
v 0.902796 0.124395 -1.157448
vt 0.0241 0.9188
vt 0.0137 0.9249
vt 0.0137 0.9128
vt 0.0032 0.9188
vt 0.0032 0.9309
vt 0.0241 0.9309
vt 0.0137 0.9369
vt 0.0557 0.9128
vt 0.0425 0.9205
vt 0.0425 0.9052
vt 0.0293 0.9128
vt 0.0293 0.9281
vt 0.0557 0.9281
vt 0.0425 0.9357
vt 0.0484 0.9046
vt 0.0482 0.8899
vt 0.0610 0.8971
vt 0.0608 0.8824
vt 0.0480 0.8752
vt 0.0355 0.8974
vt 0.0354 0.8827
vt 0.0016 0.8862
vt 0.0178 0.8955
vt 0.0016 0.9048
vt 0.0178 0.9141
vt 0.0339 0.9048
vt 0.0178 0.8769
vt 0.0339 0.8862
vn -0.1219 0.3219 0.9389
vn -0.7522 0.3219 -0.5750
vn 0.7522 0.3219 0.5750
vn 0.8741 0.3219 -0.3639
vn -0.8741 0.3219 0.3639
vn 0.1219 0.3219 -0.9389
vn -0.3229 0.5150 -0.7941
vn 0.8491 0.5150 0.1174
vn -0.8491 0.5150 -0.1174
vn -0.5262 0.5150 0.6766
vn 0.5262 0.5150 -0.6766
vn 0.3229 0.5150 0.7941
vn 0.6685 0.5150 0.5366
vn -0.7989 0.5150 0.3106
vn 0.7989 0.5150 -0.3106
vn 0.1305 0.5150 -0.8472
vn -0.1305 0.5150 0.8472
vn -0.6685 0.5150 -0.5366
usemtl Material.10691
s off
f 6/1/1 5/2/1 7/3/1
f 1/4/2 5/2/2 2/5/2
f 4/6/3 5/2/3 6/1/3
f 3/7/4 5/2/4 4/6/4
f 7/3/5 5/2/5 1/4/5
f 2/5/6 5/2/6 3/7/6
f 13/8/7 12/9/7 14/10/7
f 8/11/8 12/9/8 9/12/8
f 11/13/9 12/9/9 13/8/9
f 10/14/10 12/9/10 11/13/10
f 14/10/11 12/9/11 8/11/11
f 9/12/12 12/9/12 10/14/12
f 20/15/13 19/16/13 21/17/13
f 15/18/14 19/16/14 16/19/14
f 18/20/15 19/16/15 20/15/15
f 17/21/16 19/16/16 18/20/16
f 21/17/17 19/16/17 15/18/17
f 16/19/18 19/16/18 17/21/18
f 27/22/7 26/23/7 28/24/7
f 22/25/8 26/23/8 23/26/8
f 25/27/9 26/23/9 27/22/9
f 24/28/10 26/23/10 25/27/10
f 28/24/11 26/23/11 22/25/11
f 23/26/12 26/23/12 24/28/12
o Cone.015_Cone.057
v -1.090256 0.772173 0.749954
v -0.962883 0.772173 0.648941
v -0.811718 0.772173 0.708743
v -0.787925 0.772173 0.869557
v -0.939090 1.186314 0.809755
v -0.915297 0.772173 0.970569
v -1.066463 0.772173 0.910768
v -0.729783 0.606019 0.780556
v -0.809150 0.606019 0.976421
v -1.018457 0.606019 1.005620
v -1.148397 0.606019 0.838954
v -0.939090 0.910654 0.809755
v -1.069031 0.606019 0.643090
v -0.859724 0.606019 0.613891
v -1.175196 0.399345 0.988057
v -1.211557 0.399345 0.694433
v -0.975452 0.399345 0.516131
v -0.702985 0.399345 0.631453
v -0.939090 0.825834 0.809755
v -0.666624 0.399345 0.925078
v -0.902729 0.399345 1.103380
v -0.528849 0.124395 0.752525
v -0.684407 0.124395 1.136420
v -1.094649 0.124395 1.193650
v -1.349332 0.124395 0.866985
v -0.939090 0.721479 0.809755
v -1.193774 0.124395 0.483091
v -0.783532 0.124395 0.425861
vt 0.0867 0.9190
vt 0.0763 0.9250
vt 0.0763 0.9130
vt 0.0659 0.9190
vt 0.0659 0.9310
vt 0.0867 0.9310
vt 0.0763 0.9370
vt 0.1182 0.9127
vt 0.1051 0.9203
vt 0.1051 0.9052
vt 0.0919 0.9127
vt 0.0919 0.9279
vt 0.1182 0.9279
vt 0.1051 0.9355
vt 0.1108 0.9047
vt 0.1106 0.8900
vt 0.1234 0.8972
vt 0.1233 0.8824
vt 0.1104 0.8752
vt 0.0979 0.8975
vt 0.0977 0.8827
vt 0.0643 0.8861
vt 0.0804 0.8955
vt 0.0643 0.9048
vt 0.0804 0.9141
vt 0.0965 0.9048
vt 0.0804 0.8768
vt 0.0965 0.8861
vn -0.3483 0.3219 0.8804
vn -0.5883 0.3219 -0.7418
vn 0.5883 0.3219 0.7418
vn 0.9366 0.3219 -0.1386
vn -0.9366 0.3219 0.1386
vn 0.3483 0.3219 -0.8804
vn -0.1184 0.5150 -0.8490
vn 0.7945 0.5150 0.3219
vn -0.7945 0.5150 -0.3219
vn -0.6760 0.5150 0.5271
vn 0.6760 0.5150 -0.5271
vn 0.1184 0.5150 0.8490
vn 0.5166 0.5150 0.6841
vn -0.8507 0.5150 0.1053
vn 0.8507 0.5150 -0.1053
vn 0.3341 0.5150 -0.7894
vn -0.3341 0.5150 0.7894
vn -0.5166 0.5150 -0.6841
usemtl Material.10640
s off
f 34/29/19 33/30/19 35/31/19
f 29/32/20 33/30/20 30/33/20
f 32/34/21 33/30/21 34/29/21
f 31/35/22 33/30/22 32/34/22
f 35/31/23 33/30/23 29/32/23
f 30/33/24 33/30/24 31/35/24
f 41/36/25 40/37/25 42/38/25
f 36/39/26 40/37/26 37/40/26
f 39/41/27 40/37/27 41/36/27
f 38/42/28 40/37/28 39/41/28
f 42/38/29 40/37/29 36/39/29
f 37/40/30 40/37/30 38/42/30
f 48/43/31 47/44/31 49/45/31
f 43/46/32 47/44/32 44/47/32
f 46/48/33 47/44/33 48/43/33
f 45/49/34 47/44/34 46/48/34
f 49/45/35 47/44/35 43/46/35
f 44/47/36 47/44/36 45/49/36
f 55/50/25 54/51/25 56/52/25
f 50/53/26 54/51/26 51/54/26
f 53/55/27 54/51/27 55/50/27
f 52/56/28 54/51/28 53/55/28
f 56/52/29 54/51/29 50/53/29
f 51/54/30 54/51/30 52/56/30
o Plane.1566_Plane.2307
v -1.191105 0.007317 -0.421803
v -0.321838 0.007317 -0.421803
v -1.191104 0.007317 -1.252238
v -0.321838 0.007317 -1.252238
v -1.191105 0.057421 -0.837020
v -0.321838 0.057421 -0.837020
v -0.756472 0.057421 -0.421803
v -0.756471 0.057421 -1.252238
v -0.756471 0.254676 -0.837020
vt 0.0942 0.9686
vt 0.1255 0.9686
vt 0.1255 1.0000
vt 0.0942 1.0000
vt 0.0942 0.9373
vt 0.1255 0.9373
vt 0.0628 0.9373
vt 0.0628 0.9686
vt 0.0628 1.0000
vn 0.2631 0.9246 -0.2754
vn 0.2631 0.9246 0.2754
vn -0.2631 0.9246 0.2754
vn -0.2631 0.9246 -0.2754
usemtl Material.10664
s off
f 65/57/37 62/58/37 60/59/37 64/60/37
f 63/61/38 58/62/38 62/58/38 65/57/38
f 57/63/39 63/61/39 65/57/39 61/64/39
f 61/64/40 65/57/40 64/60/40 59/65/40
o Plane.000
v -2.184200 0.001000 2.184200
v 2.184200 0.001000 2.184200
v -2.184200 0.001000 -2.184200
v 2.184200 0.001000 -2.184200
vt 0.2502 0.6253
vt 0.3747 0.6253
vt 0.3747 0.7498
vt 0.2502 0.7498
vn 0.0000 1.0000 0.0000
usemtl Material.001
s off
f 66/66/41 67/67/41 69/68/41 68/69/41
