# Blender v2.76 (sub 0) OBJ File: 'road_01.blend'
# www.blender.org
mtllib road_01.mtl
o Plane.015_Plane.017
v 0.533680 0.019017 -4.580894
v 0.533680 0.019017 -1.496820
v -0.466320 0.019017 -4.580894
v -0.466320 0.019017 -1.496820
vt 0.415894 0.124993
vt 0.375835 0.124993
vt 0.375835 0.000104
vt 0.415894 0.000104
vn 0.000000 1.000000 0.000000
usemtl Material.017
s off
f 1/1/1 3/2/1 4/3/1 2/4/1
o Plane.016_Plane.018
v 0.533680 0.019017 -1.496820
v 0.533680 0.019017 1.587253
v -0.466320 0.019017 -1.496820
v -0.466320 0.019017 1.587253
vt 0.415894 0.124993
vt 0.375835 0.124993
vt 0.375835 0.000104
vt 0.415894 0.000104
vn 0.000000 1.000000 0.000000
usemtl Material.018
s off
f 5/5/2 7/6/2 8/7/2 6/8/2
o Plane.017_Plane.019
v 0.533680 0.019017 1.587253
v 0.533680 0.019017 4.671326
v -0.466320 0.019017 1.587253
v -0.466320 0.019017 4.671326
vt 0.415894 0.124993
vt 0.375835 0.124993
vt 0.375835 0.000104
vt 0.415894 0.000104
vn 0.000000 1.000000 0.000000
usemtl Material.019
s off
f 9/9/3 11/10/3 12/11/3 10/12/3
