# Blender v2.77 (sub 0) OBJ File: 'house_01.blend'
# www.blender.org
mtllib house_01_transparent.mtl
o Plane.1089_Plane.1363
v 0.229217 0.569158 0.145471
v 0.229217 0.569158 0.012405
v 0.229587 0.740532 0.145471
v 0.229587 0.740532 0.012405
v 0.234218 0.659257 0.145471
v 0.234218 0.659257 0.012405
v 0.229217 0.569158 0.078938
v 0.241018 0.740532 0.078938
v 0.244570 0.659257 0.078938
vt 0.7880 0.0469
vt 0.8005 0.0469
vt 0.8005 0.0625
vt 0.7880 0.0625
vt 0.7880 0.0313
vt 0.8005 0.0313
vt 0.7755 0.0313
vt 0.7755 0.0469
vt 0.7755 0.0625
vn 0.9856 0.0496 -0.1614
vn 0.9907 -0.1119 -0.0771
vn 0.9907 -0.1119 0.0771
vn 0.9856 0.0496 0.1614
usemtl Material.6974
s off
f 9/1/1 6/2/1 4/3/1 8/4/1
f 7/5/2 2/6/2 6/2/2 9/1/2
f 1/7/3 7/5/3 9/1/3 5/8/3
f 5/8/4 9/1/4 8/4/4 3/9/4
o Plane.1090_Plane.1364
v -0.414213 0.569158 0.012405
v -0.414213 0.569158 0.145471
v -0.414583 0.740532 0.012405
v -0.414583 0.740532 0.145471
v -0.419214 0.659257 0.012405
v -0.419214 0.659257 0.145471
v -0.414213 0.569158 0.078938
v -0.426013 0.740532 0.078938
v -0.429566 0.659257 0.078938
vt 0.7880 0.0469
vt 0.8005 0.0469
vt 0.8005 0.0625
vt 0.7880 0.0625
vt 0.7880 0.0313
vt 0.8005 0.0313
vt 0.7755 0.0313
vt 0.7755 0.0469
vt 0.7755 0.0625
vn -0.9856 0.0496 0.1614
vn -0.9907 -0.1119 0.0771
vn -0.9907 -0.1119 -0.0771
vn -0.9856 0.0496 -0.1614
usemtl Material.6974
s off
f 18/10/5 15/11/5 13/12/5 17/13/5
f 16/14/6 11/15/6 15/11/6 18/10/6
f 10/16/7 16/14/7 18/10/7 14/17/7
f 14/17/8 18/10/8 17/13/8 12/18/8
o Plane.1329_Plane.1694
v -0.491965 0.003473 -0.991634
v -0.491965 0.003473 -0.292957
v 0.206712 0.003473 -0.991634
v 0.206712 0.003473 -0.292957
v -0.142627 0.090037 -0.991634
v -0.142627 0.090037 -0.292957
v -0.491965 0.090037 -0.642296
v 0.206712 0.090037 -0.642296
v -0.142627 0.279066 -0.642296
vt 0.0314 0.9686
vt 0.0628 0.9686
vt 0.0628 1.0000
vt 0.0314 1.0000
vt 0.0314 0.9372
vt 0.0628 0.9372
vt 0.0000 0.9372
vt 0.0000 0.9686
vt 0.0000 1.0000
vn 0.3445 0.8733 0.3445
vn -0.3445 0.8733 0.3445
vn -0.3445 0.8733 -0.3445
vn 0.3445 0.8733 -0.3445
usemtl Material.8825
s off
f 27/19/9 24/20/9 22/21/9 26/22/9
f 25/23/10 20/24/10 24/20/10 27/19/10
f 19/25/11 25/23/11 27/19/11 23/26/11
f 23/26/12 27/19/12 26/22/12 21/27/12
o Cone.005_Cone.029
v 0.560498 0.772173 -0.766769
v 0.684113 0.772173 -0.872347
v 0.837353 0.772173 -0.818083
v 0.866979 0.772173 -0.658241
v 0.713738 1.186314 -0.712505
v 0.743364 0.772173 -0.552663
v 0.590124 0.772173 -0.606927
v 0.921845 0.606019 -0.749297
v 0.849654 0.606019 -0.550676
v 0.641548 0.606019 -0.513884
v 0.505632 0.606019 -0.675713
v 0.713738 0.910654 -0.712505
v 0.577823 0.606019 -0.874335
v 0.785929 0.606019 -0.911127
v 0.484274 0.399345 -0.525734
v 0.437258 0.399345 -0.817842
v 0.666723 0.399345 -1.004613
v 0.943203 0.399345 -0.899276
v 0.713738 0.825834 -0.712505
v 0.990219 0.399345 -0.607168
v 0.760754 0.399345 -0.420397
v 1.121627 0.124395 -0.784617
v 0.980134 0.124395 -0.395319
v 0.572245 0.124395 -0.323207
v 0.305850 0.124395 -0.640393
v 0.713738 0.721479 -0.712505
v 0.447343 0.124395 -1.029691
v 0.855232 0.124395 -1.101803
vt 0.0241 0.9188
vt 0.0137 0.9249
vt 0.0137 0.9128
vt 0.0032 0.9188
vt 0.0032 0.9309
vt 0.0241 0.9309
vt 0.0137 0.9369
vt 0.0557 0.9128
vt 0.0425 0.9205
vt 0.0425 0.9052
vt 0.0293 0.9128
vt 0.0293 0.9281
vt 0.0557 0.9281
vt 0.0425 0.9357
vt 0.0484 0.9046
vt 0.0482 0.8899
vt 0.0610 0.8971
vt 0.0608 0.8824
vt 0.0480 0.8752
vt 0.0355 0.8974
vt 0.0354 0.8827
vt 0.0016 0.8862
vt 0.0178 0.8955
vt 0.0016 0.9048
vt 0.0178 0.9141
vt 0.0339 0.9048
vt 0.0178 0.8769
vt 0.0339 0.8862
vn -0.3160 0.3219 0.8925
vn -0.6149 0.3219 -0.7199
vn 0.6149 0.3219 0.7199
vn 0.9309 0.3219 -0.1725
vn -0.9309 0.3219 0.1725
vn 0.3160 0.3219 -0.8925
vn -0.1492 0.5150 -0.8441
vn 0.8056 0.5150 0.2928
vn -0.8056 0.5150 -0.2928
vn -0.6564 0.5150 0.5513
vn 0.6564 0.5150 -0.5513
vn 0.1492 0.5150 0.8441
vn 0.5411 0.5150 0.6648
vn -0.8463 0.5150 0.1362
vn 0.8463 0.5150 -0.1362
vn 0.3052 0.5150 -0.8010
vn -0.3052 0.5150 0.8010
vn -0.5411 0.5150 -0.6648
usemtl Material.10691
s off
f 33/28/13 32/29/13 34/30/13
f 28/31/14 32/29/14 29/32/14
f 31/33/15 32/29/15 33/28/15
f 30/34/16 32/29/16 31/33/16
f 34/30/17 32/29/17 28/31/17
f 29/32/18 32/29/18 30/34/18
f 40/35/19 39/36/19 41/37/19
f 35/38/20 39/36/20 36/39/20
f 38/40/21 39/36/21 40/35/21
f 37/41/22 39/36/22 38/40/22
f 41/37/23 39/36/23 35/38/23
f 36/39/24 39/36/24 37/41/24
f 47/42/25 46/43/25 48/44/25
f 42/45/26 46/43/26 43/46/26
f 45/47/27 46/43/27 47/42/27
f 44/48/28 46/43/28 45/47/28
f 48/44/29 46/43/29 42/45/29
f 43/46/30 46/43/30 44/48/30
f 54/49/19 53/50/19 55/51/19
f 49/52/20 53/50/20 50/53/20
f 52/54/21 53/50/21 54/49/21
f 51/55/22 53/50/22 52/54/22
f 55/51/23 53/50/23 49/52/23
f 50/53/24 53/50/24 51/55/24
o Cone.022_Cone.063
v -0.715955 0.772173 0.801840
v -0.723050 0.772173 0.964250
v -0.867249 0.772173 1.039309
v -1.004352 0.772173 0.951960
v -0.860153 1.186314 0.876900
v -0.997256 0.772173 0.789550
v -0.853058 0.772173 0.714491
v -0.975180 0.606019 1.054188
v -1.071202 0.606019 0.865928
v -0.956176 0.606019 0.688640
v -0.745127 0.606019 0.699612
v -0.860153 0.910654 0.876900
v -0.649105 0.606019 0.887872
v -0.764131 0.606019 1.065160
v -0.840244 0.399345 0.581703
v -0.594551 0.399345 0.746543
v -0.614460 0.399345 1.041740
v -0.880062 0.399345 1.172097
v -0.860153 0.825834 0.876900
v -1.125756 0.399345 1.007257
v -1.105847 0.399345 0.712060
v -1.085605 0.124395 1.224384
v -1.273809 0.124395 0.855395
v -1.048357 0.124395 0.507911
v -0.634701 0.124395 0.529416
v -0.860153 0.721479 0.876900
v -0.446498 0.124395 0.898405
v -0.671950 0.124395 1.245889
vt 0.0867 0.9190
vt 0.0763 0.9250
vt 0.0763 0.9130
vt 0.0659 0.9190
vt 0.0659 0.9310
vt 0.0867 0.9310
vt 0.0763 0.9370
vt 0.1182 0.9127
vt 0.1051 0.9203
vt 0.1051 0.9052
vt 0.0919 0.9127
vt 0.0919 0.9279
vt 0.1182 0.9279
vt 0.1051 0.9355
vt 0.1108 0.9047
vt 0.1106 0.8900
vt 0.1234 0.8972
vt 0.1233 0.8824
vt 0.1104 0.8752
vt 0.0979 0.8975
vt 0.0977 0.8827
vt 0.0643 0.8861
vt 0.0804 0.8955
vt 0.0643 0.9048
vt 0.0804 0.9141
vt 0.0965 0.9048
vt 0.0804 0.8768
vt 0.0965 0.8861
vn -0.4372 0.3219 -0.8398
vn 0.9459 0.3219 0.0413
vn -0.9459 0.3219 -0.0413
vn -0.5087 0.3219 0.7985
vn 0.5087 0.3219 -0.7985
vn 0.4372 0.3219 0.8398
vn 0.7191 0.5150 0.4666
vn -0.7636 0.5150 0.3895
vn 0.7636 0.5150 -0.3895
vn 0.0445 0.5150 -0.8560
vn -0.0445 0.5150 0.8560
vn -0.7191 0.5150 -0.4666
vn -0.8553 0.5150 -0.0577
vn 0.4776 0.5150 -0.7118
vn -0.4776 0.5150 0.7118
vn 0.3777 0.5150 0.7695
vn -0.3777 0.5150 -0.7695
vn 0.8553 0.5150 0.0577
usemtl Material.10640
s off
f 61/56/31 60/57/31 62/58/31
f 56/59/32 60/57/32 57/60/32
f 59/61/33 60/57/33 61/56/33
f 58/62/34 60/57/34 59/61/34
f 62/58/35 60/57/35 56/59/35
f 57/60/36 60/57/36 58/62/36
f 68/63/37 67/64/37 69/65/37
f 63/66/38 67/64/38 64/67/38
f 66/68/39 67/64/39 68/63/39
f 65/69/40 67/64/40 66/68/40
f 69/65/41 67/64/41 63/66/41
f 64/67/42 67/64/42 65/69/42
f 75/70/43 74/71/43 76/72/43
f 70/73/44 74/71/44 71/74/44
f 73/75/45 74/71/45 75/70/45
f 72/76/46 74/71/46 73/75/46
f 76/72/47 74/71/47 70/73/47
f 71/74/48 74/71/48 72/76/48
f 82/77/37 81/78/37 83/79/37
f 77/80/38 81/78/38 78/81/38
f 80/82/39 81/78/39 82/77/39
f 79/83/40 81/78/40 80/82/40
f 83/79/41 81/78/41 77/80/41
f 78/81/42 81/78/42 79/83/42
o Plane.000_Plane.006
v -2.184200 0.001000 2.184200
v 2.184200 0.001000 2.184200
v -2.184200 0.001000 -2.184200
v 2.184200 0.001000 -2.184200
vt 0.0001 0.5003
vt 0.1245 0.5003
vt 0.1245 0.6248
vt 0.0001 0.6248
vn 0.0000 1.0000 0.0000
usemtl Material.006
s off
f 84/84/49 85/85/49 87/86/49 86/87/49
