# Blender v2.77 (sub 0) OBJ File: 'windmill_01.blend'
# www.blender.org
mtllib windmill_01_transparency.mtl
o Plane.1122_Plane.1434
v 0.493588 1.365157 0.350807
v 0.493588 1.365157 0.217741
v 0.493958 1.536533 0.350807
v 0.493958 1.536533 0.217741
v 0.498589 1.455257 0.350807
v 0.498589 1.455257 0.217741
v 0.493588 1.365157 0.284274
v 0.505389 1.536533 0.284274
v 0.508941 1.455257 0.284274
vt 0.7629 0.0469
vt 0.7754 0.0469
vt 0.7754 0.0625
vt 0.7629 0.0625
vt 0.7629 0.0313
vt 0.7754 0.0313
vt 0.7504 0.0313
vt 0.7504 0.0469
vt 0.7504 0.0625
vn 0.9856 0.0496 -0.1614
vn 0.9907 -0.1119 -0.0771
vn 0.9907 -0.1119 0.0771
vn 0.9856 0.0496 0.1614
usemtl Material.6974
s off
f 9/1/1 6/2/1 4/3/1 8/4/1
f 7/5/2 2/6/2 6/2/2 9/1/2
f 1/7/3 7/5/3 9/1/3 5/8/3
f 5/8/4 9/1/4 8/4/4 3/9/4
o Plane.1123_Plane.1435
v -0.149844 1.365157 0.217741
v -0.149844 1.365157 0.350807
v -0.150214 1.536533 0.217741
v -0.150214 1.536533 0.350807
v -0.154845 1.455257 0.217741
v -0.154845 1.455257 0.350807
v -0.149844 1.365157 0.284274
v -0.161645 1.536533 0.284274
v -0.165197 1.455257 0.284274
vt 0.7629 0.0469
vt 0.7754 0.0469
vt 0.7754 0.0625
vt 0.7629 0.0625
vt 0.7629 0.0313
vt 0.7754 0.0313
vt 0.7504 0.0313
vt 0.7504 0.0469
vt 0.7504 0.0625
vn -0.9856 0.0496 0.1614
vn -0.9907 -0.1119 0.0771
vn -0.9907 -0.1119 -0.0771
vn -0.9856 0.0496 -0.1614
usemtl Material.6974
s off
f 18/10/5 15/11/5 13/12/5 17/13/5
f 16/14/6 11/15/6 15/11/6 18/10/6
f 10/16/7 16/14/7 18/10/7 14/17/7
f 14/17/8 18/10/8 17/13/8 12/18/8
o Plane.1124_Plane.1436
v 0.242173 0.569158 -0.588410
v 0.109107 0.569158 -0.588410
v 0.242173 0.740533 -0.588780
v 0.109107 0.740533 -0.588780
v 0.242173 0.659257 -0.593412
v 0.109107 0.659257 -0.593412
v 0.175640 0.569158 -0.588410
v 0.175640 0.740533 -0.600211
v 0.175640 0.659257 -0.603764
vt 0.7629 0.0469
vt 0.7754 0.0469
vt 0.7754 0.0625
vt 0.7629 0.0625
vt 0.7629 0.0313
vt 0.7754 0.0313
vt 0.7504 0.0313
vt 0.7504 0.0469
vt 0.7504 0.0625
vn -0.1614 0.0496 -0.9856
vn -0.0771 -0.1119 -0.9907
vn 0.0771 -0.1119 -0.9907
vn 0.1614 0.0496 -0.9856
usemtl Material.6974
s off
f 27/19/9 24/20/9 22/21/9 26/22/9
f 25/23/10 20/24/10 24/20/10 27/19/10
f 19/25/11 25/23/11 27/19/11 23/26/11
f 23/26/12 27/19/12 26/22/12 21/27/12
o Plane.1125_Plane.1437
v 0.110696 0.795882 0.720043
v 0.243762 0.795882 0.720043
v 0.110696 0.967257 0.720413
v 0.243762 0.967257 0.720413
v 0.110696 0.885982 0.725044
v 0.243762 0.885982 0.725044
v 0.177229 0.795882 0.720043
v 0.177229 0.967257 0.731843
v 0.177229 0.885982 0.735396
vt 0.7629 0.0469
vt 0.7754 0.0469
vt 0.7754 0.0625
vt 0.7629 0.0625
vt 0.7629 0.0313
vt 0.7754 0.0313
vt 0.7504 0.0313
vt 0.7504 0.0469
vt 0.7504 0.0625
vn 0.1614 0.0496 0.9856
vn 0.0771 -0.1119 0.9907
vn -0.0771 -0.1119 0.9907
vn -0.1614 0.0496 0.9856
usemtl Material.6974
s off
f 36/28/13 33/29/13 31/30/13 35/31/13
f 34/32/14 29/33/14 33/29/14 36/28/14
f 28/34/15 34/32/15 36/28/15 32/35/15
f 32/35/16 36/28/16 35/31/16 30/36/16
o Plane.1142_Plane.1454
v 0.239077 0.795882 -0.157140
v 0.106012 0.795882 -0.157140
v 0.239077 0.967257 -0.157510
v 0.106012 0.967257 -0.157510
v 0.239077 0.885982 -0.162141
v 0.106012 0.885982 -0.162141
v 0.172544 0.795882 -0.157140
v 0.172544 0.967257 -0.168941
v 0.172544 0.885982 -0.172494
vt 0.7629 0.0469
vt 0.7754 0.0469
vt 0.7754 0.0625
vt 0.7629 0.0625
vt 0.7629 0.0313
vt 0.7754 0.0313
vt 0.7504 0.0313
vt 0.7504 0.0469
vt 0.7504 0.0625
vn -0.1614 0.0496 -0.9856
vn -0.0771 -0.1119 -0.9907
vn 0.0771 -0.1119 -0.9907
vn 0.1614 0.0496 -0.9856
usemtl Material.6974
s off
f 45/37/17 42/38/17 40/39/17 44/40/17
f 43/41/18 38/42/18 42/38/18 45/37/18
f 37/43/19 43/41/19 45/37/19 41/44/19
f 41/44/20 45/37/20 44/40/20 39/45/20
o Plane.1322_Plane.1678
v 0.536367 0.003473 -0.661465
v 1.224232 0.003473 -0.661465
v 0.536367 0.003473 -1.349329
v 1.224232 0.003473 -1.349329
v 0.536367 0.088698 -1.005397
v 1.224232 0.088698 -1.005397
v 0.880300 0.088698 -0.661465
v 0.880300 0.088698 -1.349329
v 0.880300 0.274801 -1.005397
vt 0.0314 0.9686
vt 0.0628 0.9686
vt 0.0628 1.0000
vt 0.0314 1.0000
vt 0.0314 0.9372
vt 0.0628 0.9372
vt 0.0000 0.9372
vt 0.0000 0.9686
vt 0.0000 1.0000
vn 0.3445 0.8733 -0.3445
vn 0.3445 0.8733 0.3445
vn -0.3445 0.8733 0.3445
vn -0.3445 0.8733 -0.3445
usemtl Material.8825
s off
f 54/46/21 51/47/21 49/48/21 53/49/21
f 52/50/22 47/51/22 51/47/22 54/46/22
f 46/52/23 52/50/23 54/46/23 50/53/23
f 50/53/24 54/46/24 53/49/24 48/54/24
o Cone.017_Cone.059
v 1.101891 0.772173 1.065746
v 1.003155 0.772173 1.194891
v 0.841945 0.772173 1.173957
v 0.779469 0.772173 1.023877
v 0.940680 1.186314 1.044811
v 0.878204 0.772173 0.894732
v 1.039415 0.772173 0.915666
v 0.744910 0.606019 1.124412
v 0.773859 0.606019 0.915070
v 0.969629 0.606019 0.835470
v 1.136449 0.606019 0.965211
v 0.940680 0.910654 1.044811
v 1.107500 0.606019 1.174553
v 0.911731 0.606019 1.254153
v 1.125893 0.399345 0.814087
v 1.233099 0.399345 1.089849
v 1.047886 0.399345 1.320573
v 0.755467 0.399345 1.275536
v 0.940680 0.825834 1.044811
v 0.648260 0.399345 0.999774
v 0.833473 0.399345 0.769050
v 0.556971 0.124395 1.200828
v 0.613711 0.124395 0.790518
v 0.997420 0.124395 0.634502
v 1.324389 0.124395 0.888795
v 0.940680 0.721479 1.044811
v 1.267648 0.124395 1.299105
v 0.883939 0.124395 1.455121
vt 0.0867 0.9190
vt 0.0763 0.9250
vt 0.0763 0.9130
vt 0.0659 0.9190
vt 0.0659 0.9310
vt 0.0867 0.9310
vt 0.0763 0.9370
vt 0.1182 0.9127
vt 0.1051 0.9203
vt 0.1051 0.9052
vt 0.0919 0.9127
vt 0.0919 0.9279
vt 0.1182 0.9279
vt 0.1051 0.9355
vt 0.1108 0.9047
vt 0.1106 0.8900
vt 0.1234 0.8972
vt 0.1233 0.8824
vt 0.1104 0.8752
vt 0.0979 0.8975
vt 0.0977 0.8827
vt 0.0643 0.8861
vt 0.0804 0.8955
vt 0.0643 0.9048
vt 0.0804 0.9141
vt 0.0965 0.9048
vt 0.0804 0.8768
vt 0.0965 0.8861
vn 0.1219 0.3219 -0.9389
vn 0.7522 0.3219 0.5750
vn -0.7522 0.3219 -0.5750
vn -0.8741 0.3219 0.3639
vn 0.8741 0.3219 -0.3639
vn -0.1219 0.3219 0.9389
vn 0.3229 0.5150 0.7941
vn -0.8491 0.5150 -0.1174
vn 0.8491 0.5150 0.1174
vn 0.5262 0.5150 -0.6766
vn -0.5262 0.5150 0.6766
vn -0.3229 0.5150 -0.7941
vn -0.6685 0.5150 -0.5366
vn 0.7989 0.5150 -0.3106
vn -0.7989 0.5150 0.3106
vn -0.1305 0.5150 0.8472
vn 0.1305 0.5150 -0.8472
vn 0.6685 0.5150 0.5366
usemtl Material.10640
s off
f 60/55/25 59/56/25 61/57/25
f 55/58/26 59/56/26 56/59/26
f 58/60/27 59/56/27 60/55/27
f 57/61/28 59/56/28 58/60/28
f 61/57/29 59/56/29 55/58/29
f 56/59/30 59/56/30 57/61/30
f 67/62/31 66/63/31 68/64/31
f 62/65/32 66/63/32 63/66/32
f 65/67/33 66/63/33 67/62/33
f 64/68/34 66/63/34 65/67/34
f 68/64/35 66/63/35 62/65/35
f 63/66/36 66/63/36 64/68/36
f 74/69/37 73/70/37 75/71/37
f 69/72/38 73/70/38 70/73/38
f 72/74/39 73/70/39 74/69/39
f 71/75/40 73/70/40 72/74/40
f 75/71/41 73/70/41 69/72/41
f 70/73/42 73/70/42 71/75/42
f 81/76/31 80/77/31 82/78/31
f 76/79/32 80/77/32 77/80/32
f 79/81/33 80/77/33 81/76/33
f 78/82/34 80/77/34 79/81/34
f 82/78/35 80/77/35 76/79/35
f 77/80/36 80/77/36 78/82/36
o Plane.1567_Plane.2308
v -0.921543 0.007317 1.396978
v -0.052277 0.007317 1.396978
v -0.921543 0.007317 0.566542
v -0.052277 0.007317 0.566542
v -0.921543 0.057421 0.981760
v -0.052277 0.057421 0.981760
v -0.486910 0.057421 1.396978
v -0.486910 0.057421 0.566542
v -0.486910 0.254676 0.981760
vt 0.0942 0.9686
vt 0.1255 0.9686
vt 0.1255 1.0000
vt 0.0942 1.0000
vt 0.0942 0.9373
vt 0.1255 0.9373
vt 0.0628 0.9373
vt 0.0628 0.9686
vt 0.0628 1.0000
vn 0.2631 0.9246 -0.2754
vn 0.2631 0.9246 0.2754
vn -0.2631 0.9246 0.2754
vn -0.2631 0.9246 -0.2754
usemtl Material.10664
s off
f 91/83/43 88/84/43 86/85/43 90/86/43
f 89/87/44 84/88/44 88/84/44 91/83/44
f 83/89/45 89/87/45 91/83/45 87/90/45
f 87/90/46 91/83/46 90/86/46 85/91/46
o Cone.003_Cone.077
v -0.814694 1.009879 -1.113591
v -0.646797 1.009879 -0.985230
v -0.674013 1.009879 -0.775647
v -0.869125 1.009879 -0.694425
v -0.841910 1.548286 -0.904008
v -1.037022 1.009879 -0.822786
v -1.009806 1.009879 -1.032369
v -0.738424 0.793869 -0.649496
v -1.010581 0.793869 -0.687132
v -1.114066 0.793869 -0.941643
v -0.945395 0.793869 -1.158520
v -0.841910 1.189912 -0.904008
v -0.673238 0.793869 -1.120885
v -0.569753 0.793869 -0.866373
v -1.141864 0.525181 -1.144795
v -0.783359 0.525181 -1.284170
v -0.483404 0.525181 -1.043383
v -0.541955 0.525181 -0.663221
v -0.841910 1.079641 -0.904008
v -0.900460 0.525181 -0.523846
v -1.200415 0.525181 -0.764633
v -0.639079 0.167731 -0.405165
v -1.172505 0.167731 -0.478930
v -1.375335 0.167731 -0.977773
v -1.044740 0.167731 -1.402851
v -0.841910 0.943974 -0.904008
v -0.511314 0.167731 -1.329086
v -0.308484 0.167731 -0.830243
vt 0.0241 0.9188
vt 0.0137 0.9249
vt 0.0137 0.9128
vt 0.0032 0.9188
vt 0.0032 0.9309
vt 0.0241 0.9309
vt 0.0137 0.9369
vt 0.0557 0.9128
vt 0.0425 0.9205
vt 0.0425 0.9052
vt 0.0293 0.9128
vt 0.0293 0.9281
vt 0.0557 0.9281
vt 0.0425 0.9357
vt 0.0484 0.9046
vt 0.0482 0.8899
vt 0.0610 0.8971
vt 0.0608 0.8824
vt 0.0480 0.8752
vt 0.0355 0.8974
vt 0.0354 0.8827
vt 0.0016 0.8862
vt 0.0178 0.8955
vt 0.0016 0.9048
vt 0.0178 0.9141
vt 0.0339 0.9048
vt 0.0178 0.8769
vt 0.0339 0.8862
vn -0.9389 0.3219 -0.1219
vn 0.5750 0.3219 -0.7522
vn -0.5750 0.3219 0.7522
vn 0.3639 0.3219 0.8741
vn -0.3639 0.3219 -0.8741
vn 0.9389 0.3219 0.1219
vn 0.7941 0.5150 -0.3229
vn -0.1174 0.5150 0.8491
vn 0.1174 0.5150 -0.8491
vn -0.6766 0.5150 -0.5262
vn 0.6766 0.5150 0.5262
vn -0.7941 0.5150 0.3229
vn -0.5366 0.5150 0.6685
vn -0.3106 0.5150 -0.7989
vn 0.3106 0.5150 0.7989
vn 0.8472 0.5150 0.1305
vn -0.8472 0.5150 -0.1305
vn 0.5366 0.5150 -0.6685
usemtl Material.10691
s off
f 97/92/47 96/93/47 98/94/47
f 92/95/48 96/93/48 93/96/48
f 95/97/49 96/93/49 97/92/49
f 94/98/50 96/93/50 95/97/50
f 98/94/51 96/93/51 92/95/51
f 93/96/52 96/93/52 94/98/52
f 104/99/53 103/100/53 105/101/53
f 99/102/54 103/100/54 100/103/54
f 102/104/55 103/100/55 104/99/55
f 101/105/56 103/100/56 102/104/56
f 105/101/57 103/100/57 99/102/57
f 100/103/58 103/100/58 101/105/58
f 111/106/59 110/107/59 112/108/59
f 106/109/60 110/107/60 107/110/60
f 109/111/61 110/107/61 111/106/61
f 108/112/62 110/107/62 109/111/62
f 112/108/63 110/107/63 106/109/63
f 107/110/64 110/107/64 108/112/64
f 118/113/53 117/114/53 119/115/53
f 113/116/54 117/114/54 114/117/54
f 116/118/55 117/114/55 118/113/55
f 115/119/56 117/114/56 116/118/56
f 119/115/57 117/114/57 113/116/57
f 114/117/58 117/114/58 115/119/58
o Plane.000
v 2.184199 0.001000 2.184200
v 2.184200 0.001000 -2.184199
v -2.184200 0.001000 2.184199
v -2.184199 0.001000 -2.184200
vt 0.0001 0.3751
vt 0.1249 0.3751
vt 0.1249 0.4999
vt 0.0001 0.4999
vn 0.0000 1.0000 0.0000
usemtl Material
s off
f 120/120/65 121/121/65 123/122/65 122/123/65
