# Blender v2.77 (sub 0) OBJ File: 'blacksmith_01.blend'
# www.blender.org
mtllib blacksmith_01_transparency.mtl
o Plane.1339_Plane.1704
v 0.315633 0.967675 -0.187812
v 0.315633 0.967675 -0.320878
v 0.316003 1.139050 -0.187812
v 0.316003 1.139050 -0.320878
v 0.320634 1.057775 -0.187812
v 0.320634 1.057775 -0.320878
v 0.315633 0.967675 -0.254345
v 0.327434 1.139050 -0.254345
v 0.330986 1.057775 -0.254345
vt 0.7628 0.0156
vt 0.7753 0.0156
vt 0.7753 0.0312
vt 0.7628 0.0312
vt 0.7628 0.0000
vt 0.7753 0.0000
vt 0.7503 0.0000
vt 0.7503 0.0156
vt 0.7503 0.0312
vn 0.9856 0.0496 -0.1614
vn 0.9907 -0.1119 -0.0771
vn 0.9907 -0.1119 0.0771
vn 0.9856 0.0496 0.1614
usemtl Material.6974
s off
f 9/1/1 6/2/1 4/3/1 8/4/1
f 7/5/2 2/6/2 6/2/2 9/1/2
f 1/7/3 7/5/3 9/1/3 5/8/3
f 5/8/4 9/1/4 8/4/4 3/9/4
o Plane.1340_Plane.1705
v -0.327045 0.967675 -0.320878
v -0.327045 0.967675 -0.187812
v -0.327415 1.139050 -0.320878
v -0.327415 1.139050 -0.187812
v -0.332046 1.057775 -0.320878
v -0.332046 1.057775 -0.187812
v -0.327045 0.967675 -0.254345
v -0.338846 1.139050 -0.254345
v -0.342399 1.057775 -0.254345
vt 0.7628 0.0156
vt 0.7753 0.0156
vt 0.7753 0.0312
vt 0.7628 0.0312
vt 0.7628 0.0000
vt 0.7753 0.0000
vt 0.7503 0.0000
vt 0.7503 0.0156
vt 0.7503 0.0312
vn -0.9856 0.0496 0.1614
vn -0.9907 -0.1119 0.0771
vn -0.9907 -0.1119 -0.0771
vn -0.9856 0.0496 -0.1614
usemtl Material.6974
s off
f 18/10/5 15/11/5 13/12/5 17/13/5
f 16/14/6 11/15/6 15/11/6 18/10/6
f 10/16/7 16/14/7 18/10/7 14/17/7
f 14/17/8 18/10/8 17/13/8 12/18/8
o Plane.1341_Plane.1706
v -0.073572 0.399298 0.186793
v 0.059494 0.399298 0.186793
v -0.073572 0.570673 0.187163
v 0.059494 0.570673 0.187163
v -0.073572 0.489398 0.191794
v 0.059494 0.489398 0.191794
v -0.007039 0.399298 0.186793
v -0.007039 0.570673 0.198594
v -0.007039 0.489398 0.202146
vt 0.7628 0.0156
vt 0.7753 0.0156
vt 0.7753 0.0312
vt 0.7628 0.0312
vt 0.7628 0.0000
vt 0.7753 0.0000
vt 0.7503 0.0000
vt 0.7503 0.0156
vt 0.7503 0.0312
vn 0.1614 0.0496 0.9856
vn 0.0771 -0.1119 0.9907
vn -0.0771 -0.1119 0.9907
vn -0.1614 0.0496 0.9856
usemtl Material.6974
s off
f 27/19/9 24/20/9 22/21/9 26/22/9
f 25/23/10 20/24/10 24/20/10 27/19/10
f 19/25/11 25/23/11 27/19/11 23/26/11
f 23/26/12 27/19/12 26/22/12 21/27/12
o Cone.007_Cone.049
v -1.110837 0.772173 -0.909071
v -0.988254 0.772173 -1.015844
v -0.834494 0.772173 -0.963071
v -0.803317 0.772173 -0.803524
v -0.957077 1.186314 -0.856297
v -0.925900 0.772173 -0.696751
v -1.079660 0.772173 -0.749524
v -0.749337 0.606019 -0.895108
v -0.819596 0.606019 -0.695795
v -1.027335 0.606019 -0.656984
v -1.164816 0.606019 -0.817486
v -0.957077 0.910654 -0.856297
v -1.094558 0.606019 -1.016799
v -0.886819 0.606019 -1.055611
v -1.184717 0.399345 -0.667307
v -1.234568 0.399345 -0.958944
v -1.006927 0.399345 -1.147935
v -0.729437 0.399345 -1.045288
v -0.957077 0.825834 -0.856297
v -0.679586 0.399345 -0.753650
v -0.907226 0.399345 -0.564660
v -0.549908 0.124395 -0.932367
v -0.687614 0.124395 -0.541713
v -1.094783 0.124395 -0.465644
v -1.364246 0.124395 -0.780228
v -0.957077 0.721479 -0.856297
v -1.226540 0.124395 -1.170882
v -0.819371 0.124395 -1.246951
vt 0.0241 0.9188
vt 0.0137 0.9249
vt 0.0137 0.9128
vt 0.0032 0.9188
vt 0.0032 0.9309
vt 0.0241 0.9309
vt 0.0137 0.9369
vt 0.0557 0.9128
vt 0.0425 0.9205
vt 0.0425 0.9052
vt 0.0293 0.9128
vt 0.0293 0.9281
vt 0.0557 0.9281
vt 0.0425 0.9357
vt 0.0484 0.9046
vt 0.0482 0.8899
vt 0.0610 0.8971
vt 0.0608 0.8824
vt 0.0480 0.8752
vt 0.0355 0.8974
vt 0.0354 0.8827
vt 0.0016 0.8862
vt 0.0178 0.8955
vt 0.0016 0.9048
vt 0.0178 0.9141
vt 0.0339 0.9048
vt 0.0178 0.8769
vt 0.0339 0.8862
vn -0.3074 0.3219 0.8955
vn -0.6219 0.3219 -0.7139
vn 0.6219 0.3219 0.7139
vn 0.9292 0.3219 -0.1816
vn -0.9292 0.3219 0.1816
vn 0.3074 0.3219 -0.8955
vn -0.1574 0.5150 -0.8426
vn 0.8084 0.5150 0.2850
vn -0.8084 0.5150 -0.2850
vn -0.6510 0.5150 0.5576
vn 0.6510 0.5150 -0.5576
vn 0.1574 0.5150 0.8426
vn 0.5475 0.5150 0.6595
vn -0.8449 0.5150 0.1444
vn 0.8449 0.5150 -0.1444
vn 0.2974 0.5150 -0.8040
vn -0.2974 0.5150 0.8040
vn -0.5475 0.5150 -0.6595
usemtl Material.10691
s off
f 33/28/13 32/29/13 34/30/13
f 28/31/14 32/29/14 29/32/14
f 31/33/15 32/29/15 33/28/15
f 30/34/16 32/29/16 31/33/16
f 34/30/17 32/29/17 28/31/17
f 29/32/18 32/29/18 30/34/18
f 40/35/19 39/36/19 41/37/19
f 35/38/20 39/36/20 36/39/20
f 38/40/21 39/36/21 40/35/21
f 37/41/22 39/36/22 38/40/22
f 41/37/23 39/36/23 35/38/23
f 36/39/24 39/36/24 37/41/24
f 47/42/25 46/43/25 48/44/25
f 42/45/26 46/43/26 43/46/26
f 45/47/27 46/43/27 47/42/27
f 44/48/28 46/43/28 45/47/28
f 48/44/29 46/43/29 42/45/29
f 43/46/30 46/43/30 44/48/30
f 54/49/19 53/50/19 55/51/19
f 49/52/20 53/50/20 50/53/20
f 52/54/21 53/50/21 54/49/21
f 51/55/22 53/50/22 52/54/22
f 55/51/23 53/50/23 49/52/23
f 50/53/24 53/50/24 51/55/24
o Cone.024_Cone.065
v 0.912655 0.714626 1.149350
v 0.783510 0.714626 1.050615
v 0.804444 0.714626 0.889404
v 0.954524 0.714626 0.826928
v 0.933590 1.128767 0.988139
v 1.083670 0.714626 0.925663
v 1.062735 0.714626 1.086874
v 0.853990 0.548472 0.792369
v 1.063331 0.548472 0.821319
v 1.142931 0.548472 1.017088
v 1.013190 0.548472 1.183909
v 0.933590 0.853106 0.988139
v 0.803848 0.548472 1.154960
v 0.724248 0.548472 0.959190
v 1.164314 0.341798 1.173352
v 0.888552 0.341798 1.280558
v 0.657828 0.341798 1.095345
v 0.702866 0.341798 0.802926
v 0.933590 0.768287 0.988139
v 0.978627 0.341798 0.695720
v 1.209351 0.341798 0.880933
v 0.777573 0.066848 0.604430
v 1.187883 0.066848 0.661171
v 1.343899 0.066848 1.044879
v 1.089606 0.066848 1.371848
v 0.933590 0.663932 0.988139
v 0.679296 0.066848 1.315107
v 0.523280 0.066848 0.931399
vt 0.0867 0.9190
vt 0.0763 0.9250
vt 0.0763 0.9130
vt 0.0659 0.9190
vt 0.0659 0.9310
vt 0.0867 0.9310
vt 0.0763 0.9370
vt 0.1182 0.9127
vt 0.1051 0.9203
vt 0.1051 0.9052
vt 0.0919 0.9127
vt 0.0919 0.9279
vt 0.1182 0.9279
vt 0.1051 0.9355
vt 0.1108 0.9047
vt 0.1106 0.8900
vt 0.1234 0.8972
vt 0.1233 0.8824
vt 0.1104 0.8752
vt 0.0979 0.8975
vt 0.0977 0.8827
vt 0.0643 0.8861
vt 0.0804 0.8955
vt 0.0643 0.9048
vt 0.0804 0.9141
vt 0.0965 0.9048
vt 0.0804 0.8768
vt 0.0965 0.8861
vn 0.9389 0.3219 0.1219
vn -0.5750 0.3219 0.7522
vn 0.5750 0.3219 -0.7522
vn -0.3639 0.3219 -0.8741
vn 0.3639 0.3219 0.8741
vn -0.9389 0.3219 -0.1219
vn -0.7941 0.5150 0.3229
vn 0.1174 0.5150 -0.8491
vn -0.1174 0.5150 0.8491
vn 0.6766 0.5150 0.5262
vn -0.6766 0.5150 -0.5262
vn 0.7941 0.5150 -0.3229
vn 0.5366 0.5150 -0.6685
vn 0.3106 0.5150 0.7989
vn -0.3106 0.5150 -0.7989
vn -0.8472 0.5150 -0.1305
vn 0.8472 0.5150 0.1305
vn -0.5366 0.5150 0.6685
usemtl Material.10640
s off
f 61/56/31 60/57/31 62/58/31
f 56/59/32 60/57/32 57/60/32
f 59/61/33 60/57/33 61/56/33
f 58/62/34 60/57/34 59/61/34
f 62/58/35 60/57/35 56/59/35
f 57/60/36 60/57/36 58/62/36
f 68/63/37 67/64/37 69/65/37
f 63/66/38 67/64/38 64/67/38
f 66/68/39 67/64/39 68/63/39
f 65/69/40 67/64/40 66/68/40
f 69/65/41 67/64/41 63/66/41
f 64/67/42 67/64/42 65/69/42
f 75/70/43 74/71/43 76/72/43
f 70/73/44 74/71/44 71/74/44
f 73/75/45 74/71/45 75/70/45
f 72/76/46 74/71/46 73/75/46
f 76/72/47 74/71/47 70/73/47
f 71/74/48 74/71/48 72/76/48
f 82/77/37 81/78/37 83/79/37
f 77/80/38 81/78/38 78/81/38
f 80/82/39 81/78/39 82/77/39
f 79/83/40 81/78/40 80/82/40
f 83/79/41 81/78/41 77/80/41
f 78/81/42 81/78/42 79/83/42
o Plane.1569_Plane.2310
v 1.088818 -0.014193 -0.561366
v 1.088818 -0.014193 -1.183586
v 0.494393 -0.014193 -0.561366
v 0.494393 -0.014193 -1.183586
v 0.791606 0.021671 -0.561366
v 0.791606 0.021671 -1.183586
v 1.088818 0.021671 -0.872476
v 0.494393 0.021671 -0.872476
v 0.791606 0.162866 -0.872476
vt 0.0942 0.9686
vt 0.1255 0.9686
vt 0.1255 1.0000
vt 0.0942 1.0000
vt 0.0942 0.9373
vt 0.1255 0.9373
vt 0.0628 0.9373
vt 0.0628 0.9686
vt 0.0628 1.0000
vn -0.2754 0.9246 -0.2631
vn 0.2754 0.9246 -0.2631
vn 0.2754 0.9246 0.2631
vn -0.2754 0.9246 0.2631
usemtl Material.10664
s off
f 92/84/49 89/85/49 87/86/49 91/87/49
f 90/88/50 85/89/50 89/85/50 92/84/50
f 84/90/51 90/88/51 92/84/51 88/91/51
f 88/91/52 92/84/52 91/87/52 86/92/52
o Plane.1570_Plane.2311
v -0.526062 -0.020614 1.348418
v -0.526062 -0.020614 0.791995
v -1.082486 -0.020614 1.348418
v -1.082486 -0.020614 0.791995
v -0.804274 0.048325 1.348418
v -0.804274 0.048325 0.791995
v -0.526062 0.048325 1.070207
v -1.082486 0.048325 1.070207
v -0.804274 0.198867 1.070207
vt 0.0314 0.9686
vt 0.0628 0.9686
vt 0.0628 1.0000
vt 0.0314 1.0000
vt 0.0314 0.9372
vt 0.0628 0.9372
vt 0.0000 0.9372
vt 0.0000 0.9686
vt 0.0000 1.0000
vn -0.3445 0.8733 -0.3445
vn 0.3445 0.8733 -0.3445
vn 0.3445 0.8733 0.3445
vn -0.3445 0.8733 0.3445
usemtl Material.8825
s off
f 101/93/53 98/94/53 96/95/53 100/96/53
f 99/97/54 94/98/54 98/94/54 101/93/54
f 93/99/55 99/97/55 101/93/55 97/100/55
f 97/100/56 101/93/56 100/96/56 95/101/56
o Plane.000
v -2.184200 0.001000 2.184200
v 2.184200 0.001000 2.184200
v -2.184200 0.001000 -2.184200
v 2.184200 0.001000 -2.184200
vt 0.0005 0.7505
vt 0.1247 0.7505
vt 0.1247 0.8747
vt 0.0005 0.8747
vn 0.0000 1.0000 0.0000
usemtl Material
s off
f 102/102/57 103/103/57 105/104/57 104/105/57
